<svg width="35" height="35" viewBox="0 0 35 35" fill="none" xmlns="http://www.w3.org/2000/svg">
<g filter="url(#filter0_d_6_18)">
<path fill-rule="evenodd" clip-rule="evenodd" d="M13.5175 13.1976C8.0077 14.8986 4 20.0349 4 26.1C4 26.5968 4.4032 27 4.9 27C5.3968 27 5.8 26.5968 5.8 26.1C5.8 19.6425 11.0425 14.4 17.5 14.4C23.9575 14.4 29.2 19.6425 29.2 26.1C29.2 26.5968 29.6032 27 30.1 27C30.5968 27 31 26.5968 31 26.1C31 20.0349 26.9923 14.8986 21.4825 13.1976C23.4211 11.9079 24.7 9.702 24.7 7.2C24.7 3.2265 21.4735 0 17.5 0C13.5265 0 10.3 3.2265 10.3 7.2C10.3 9.702 11.5789 11.9079 13.5175 13.1976ZM17.5 1.8C20.4799 1.8 22.9 4.2201 22.9 7.2C22.9 10.1799 20.4799 12.6 17.5 12.6C14.5201 12.6 12.1 10.1799 12.1 7.2C12.1 4.2201 14.5201 1.8 17.5 1.8Z" fill="white"/>
</g>
<defs>
<filter id="filter0_d_6_18" x="0" y="0" width="35" height="35" filterUnits="userSpaceOnUse" color-interpolation-filters="sRGB">
<feFlood flood-opacity="0" result="BackgroundImageFix"/>
<feColorMatrix in="SourceAlpha" type="matrix" values="0 0 0 0 0 0 0 0 0 0 0 0 0 0 0 0 0 0 127 0" result="hardAlpha"/>
<feOffset dy="4"/>
<feGaussianBlur stdDeviation="2"/>
<feComposite in2="hardAlpha" operator="out"/>
<feColorMatrix type="matrix" values="0 0 0 0 0 0 0 0 0 0 0 0 0 0 0 0 0 0 0.15 0"/>
<feBlend mode="normal" in2="BackgroundImageFix" result="effect1_dropShadow_6_18"/>
<feBlend mode="normal" in="SourceGraphic" in2="effect1_dropShadow_6_18" result="shape"/>
</filter>
</defs>
</svg>
