<svg width="17" height="17" viewBox="0 0 17 17" fill="none" xmlns="http://www.w3.org/2000/svg">
<g filter="url(#filter0_d_42_274)">
<path d="M13 4.5C13 6.98528 10.9853 9 8.5 9C6.01472 9 4 6.98528 4 4.5C4 2.01472 6.01472 0 8.5 0C10.9853 0 13 2.01472 13 4.5Z" fill="#F9BF29"/>
<path d="M8.53786 7.15681C8.11058 7.15513 7.74549 7.0505 7.44261 6.84291C7.13972 6.63532 6.90805 6.33315 6.7476 5.93638C6.58714 5.53962 6.50691 5.06166 6.50691 4.50251C6.50691 3.94503 6.58714 3.46875 6.7476 3.07366C6.90986 2.67857 7.14243 2.37723 7.44531 2.16964C7.75 1.96205 8.11418 1.85826 8.53786 1.85826C8.96154 1.85826 9.32482 1.96289 9.6277 2.17215C9.93059 2.37974 10.1623 2.68108 10.3227 3.07617C10.485 3.46959 10.5661 3.94503 10.5661 4.50251C10.5661 5.06334 10.4859 5.54213 10.3254 5.9389C10.165 6.33398 9.93329 6.63616 9.63041 6.84542C9.32752 7.05301 8.96334 7.15681 8.53786 7.15681ZM8.53786 6.48633C8.91286 6.48633 9.20583 6.31641 9.41677 5.97656C9.62951 5.63672 9.73588 5.14537 9.73588 4.50251C9.73588 4.07561 9.6872 3.71484 9.58984 3.4202C9.49429 3.12388 9.35637 2.89955 9.17608 2.74721C8.9976 2.59319 8.78486 2.51618 8.53786 2.51618C8.16466 2.51618 7.87169 2.68694 7.65895 3.02846C7.44621 3.36998 7.33894 3.86133 7.33714 4.50251C7.33714 4.93108 7.38492 5.29353 7.48047 5.58984C7.57782 5.88449 7.71575 6.10798 7.89423 6.26032C8.07272 6.41099 8.28726 6.48633 8.53786 6.48633Z" fill="white"/>
</g>
<defs>
<filter id="filter0_d_42_274" x="0" y="0" width="17" height="17" filterUnits="userSpaceOnUse" color-interpolation-filters="sRGB">
<feFlood flood-opacity="0" result="BackgroundImageFix"/>
<feColorMatrix in="SourceAlpha" type="matrix" values="0 0 0 0 0 0 0 0 0 0 0 0 0 0 0 0 0 0 127 0" result="hardAlpha"/>
<feOffset dy="4"/>
<feGaussianBlur stdDeviation="2"/>
<feComposite in2="hardAlpha" operator="out"/>
<feColorMatrix type="matrix" values="0 0 0 0 0 0 0 0 0 0 0 0 0 0 0 0 0 0 0.25 0"/>
<feBlend mode="normal" in2="BackgroundImageFix" result="effect1_dropShadow_42_274"/>
<feBlend mode="normal" in="SourceGraphic" in2="effect1_dropShadow_42_274" result="shape"/>
</filter>
</defs>
</svg>
