<svg width="434" height="245" viewBox="0 0 434 245" fill="none" xmlns="http://www.w3.org/2000/svg">
<circle opacity="0.15" cx="3.5" cy="3.5" r="3.5" fill="white"/>
<circle opacity="0.15" cx="49.5" cy="3.5" r="3.5" fill="white"/>
<circle opacity="0.15" cx="130.5" cy="3.5" r="3.5" fill="white"/>
<circle opacity="0.15" cx="176.5" cy="3.5" r="3.5" fill="white"/>
<circle opacity="0.15" cx="430.5" cy="3.5" r="3.5" fill="white"/>
<circle opacity="0.15" cx="222.5" cy="3.5" r="3.5" fill="white"/>
<circle opacity="0.15" cx="303.5" cy="3.5" r="3.5" fill="white"/>
<circle opacity="0.15" cx="349.5" cy="3.5" r="3.5" fill="white"/>
<circle opacity="0.15" cx="3.5" cy="37.5" r="3.5" fill="white"/>
<circle opacity="0.15" cx="49.5" cy="37.5" r="3.5" fill="white"/>
<circle opacity="0.15" cx="130.5" cy="37.5" r="3.5" fill="white"/>
<circle opacity="0.15" cx="176.5" cy="37.5" r="3.5" fill="white"/>
<circle opacity="0.15" cx="430.5" cy="37.5" r="3.5" fill="white"/>
<circle opacity="0.15" cx="222.5" cy="37.5" r="3.5" fill="white"/>
<circle opacity="0.15" cx="303.5" cy="37.5" r="3.5" fill="white"/>
<circle opacity="0.15" cx="349.5" cy="37.5" r="3.5" fill="white"/>
<circle opacity="0.15" cx="3.5" cy="71.5" r="3.5" fill="white"/>
<circle opacity="0.15" cx="49.5" cy="71.5" r="3.5" fill="white"/>
<circle opacity="0.15" cx="130.5" cy="71.5" r="3.5" fill="white"/>
<circle opacity="0.15" cx="176.5" cy="71.5" r="3.5" fill="white"/>
<circle opacity="0.15" cx="430.5" cy="71.5" r="3.5" fill="white"/>
<circle opacity="0.15" cx="222.5" cy="71.5" r="3.5" fill="white"/>
<circle opacity="0.15" cx="303.5" cy="71.5" r="3.5" fill="white"/>
<circle opacity="0.15" cx="349.5" cy="71.5" r="3.5" fill="white"/>
<circle opacity="0.15" cx="3.5" cy="105.5" r="3.5" fill="white"/>
<circle opacity="0.15" cx="49.5" cy="105.5" r="3.5" fill="white"/>
<circle opacity="0.15" cx="130.5" cy="105.5" r="3.5" fill="white"/>
<circle opacity="0.15" cx="176.5" cy="105.5" r="3.5" fill="white"/>
<circle opacity="0.15" cx="430.5" cy="105.5" r="3.5" fill="white"/>
<circle opacity="0.15" cx="222.5" cy="105.5" r="3.5" fill="white"/>
<circle opacity="0.15" cx="303.5" cy="105.5" r="3.5" fill="white"/>
<circle opacity="0.15" cx="349.5" cy="105.5" r="3.5" fill="white"/>
<circle opacity="0.15" cx="3.5" cy="241.5" r="3.5" fill="white"/>
<circle opacity="0.15" cx="49.5" cy="241.5" r="3.5" fill="white"/>
<circle opacity="0.15" cx="130.5" cy="241.5" r="3.5" fill="white"/>
<circle opacity="0.15" cx="176.5" cy="241.5" r="3.5" fill="white"/>
<circle opacity="0.15" cx="430.5" cy="241.5" r="3.5" fill="white"/>
<circle opacity="0.15" cx="222.5" cy="241.5" r="3.5" fill="white"/>
<circle opacity="0.15" cx="303.5" cy="241.5" r="3.5" fill="white"/>
<circle opacity="0.15" cx="349.5" cy="241.5" r="3.5" fill="white"/>
<circle opacity="0.15" cx="3.5" cy="173.5" r="3.5" fill="white"/>
<circle opacity="0.15" cx="49.5" cy="173.5" r="3.5" fill="white"/>
<circle opacity="0.15" cx="130.5" cy="173.5" r="3.5" fill="white"/>
<circle opacity="0.15" cx="176.5" cy="173.5" r="3.5" fill="white"/>
<circle opacity="0.15" cx="430.5" cy="173.5" r="3.5" fill="white"/>
<circle opacity="0.15" cx="222.5" cy="173.5" r="3.5" fill="white"/>
<circle opacity="0.15" cx="303.5" cy="173.5" r="3.5" fill="white"/>
<circle opacity="0.15" cx="349.5" cy="173.5" r="3.5" fill="white"/>
<circle opacity="0.15" cx="3.5" cy="207.5" r="3.5" fill="white"/>
<circle opacity="0.15" cx="49.5" cy="207.5" r="3.5" fill="white"/>
<circle opacity="0.15" cx="130.5" cy="207.5" r="3.5" fill="white"/>
<circle opacity="0.15" cx="176.5" cy="207.5" r="3.5" fill="white"/>
<circle opacity="0.15" cx="430.5" cy="207.5" r="3.5" fill="white"/>
<circle opacity="0.15" cx="222.5" cy="207.5" r="3.5" fill="white"/>
<circle opacity="0.15" cx="303.5" cy="207.5" r="3.5" fill="white"/>
<circle opacity="0.15" cx="349.5" cy="207.5" r="3.5" fill="white"/>
<circle opacity="0.15" cx="3.5" cy="139.5" r="3.5" fill="white"/>
<circle opacity="0.15" cx="49.5" cy="139.5" r="3.5" fill="white"/>
<circle opacity="0.15" cx="130.5" cy="139.5" r="3.5" fill="white"/>
<circle opacity="0.15" cx="176.5" cy="139.5" r="3.5" fill="white"/>
<circle opacity="0.15" cx="430.5" cy="139.5" r="3.5" fill="white"/>
<circle opacity="0.15" cx="222.5" cy="139.5" r="3.5" fill="white"/>
<circle opacity="0.15" cx="303.5" cy="139.5" r="3.5" fill="white"/>
<circle opacity="0.15" cx="349.5" cy="139.5" r="3.5" fill="white"/>
</svg>
