<svg width="30" height="25" viewBox="0 0 30 25" fill="none" xmlns="http://www.w3.org/2000/svg">
<g clip-path="url(#clip0_47_309)">
<path d="M23.5457 17.0929H12.7886C11.8096 17.0871 10.8615 16.8071 10.0966 16.298C9.33169 15.7888 8.79451 15.0801 8.57143 14.2857L6.85714 8.47861C6.69942 7.9394 6.69134 7.37731 6.8335 6.83511C6.97567 6.2929 7.26433 5.78485 7.67755 5.3496C8.09077 4.91434 8.61765 4.56334 9.21813 4.3233C9.81861 4.08325 10.4769 3.96048 11.1429 3.96432H25.2857C25.9517 3.96048 26.61 4.08325 27.2104 4.3233C27.8109 4.56334 28.3378 4.91434 28.751 5.3496C29.1642 5.78485 29.4529 6.2929 29.5951 6.83511C29.7372 7.37731 29.7291 7.9394 29.5714 8.47861L27.8571 14.3C27.6257 15.1043 27.0727 15.8189 26.2891 16.3265C25.5056 16.8341 24.5381 17.1044 23.5457 17.0929ZM11.0914 5.75004C10.7526 5.7509 10.4184 5.81563 10.1139 5.93938C9.80941 6.06314 9.54243 6.24271 9.333 6.46464C9.12357 6.68658 8.97712 6.94512 8.90461 7.22092C8.83209 7.49671 8.8354 7.7826 8.91428 8.05718L10.6286 13.8786C10.7447 14.2866 11.023 14.6498 11.4183 14.9092C11.8136 15.1685 12.3026 15.3088 12.8057 15.3072H23.5457C24.0488 15.3088 24.5378 15.1685 24.9331 14.9092C25.3284 14.6498 25.6068 14.2866 25.7229 13.8786L27.4371 8.05718C27.5178 7.78249 27.5223 7.49611 27.4505 7.21973C27.3787 6.94335 27.2323 6.68421 27.0226 6.46192C26.8128 6.23963 26.5451 6.06002 26.2397 5.93669C25.9344 5.81335 25.5993 5.74952 25.26 5.75004H11.0914Z" fill="white"/>
<path d="M8.10857 10C7.86379 9.99763 7.62738 9.92544 7.43868 9.79549C7.24998 9.66553 7.12037 9.48564 7.07143 9.28576L5.53714 3.73576C5.39547 3.23017 5.05207 2.77963 4.56315 2.45783C4.07423 2.13604 3.46873 1.96205 2.84572 1.96433H1.44857C1.16441 1.96433 0.89189 1.87026 0.690958 1.70282C0.490026 1.53537 0.377144 1.30827 0.377144 1.07147C0.377144 0.83467 0.490026 0.607569 0.690958 0.440126C0.89189 0.272682 1.16441 0.178614 1.44857 0.178614H2.84572C3.95297 0.17539 5.02882 0.485144 5.89754 1.05728C6.76625 1.62942 7.37649 2.43012 7.62857 3.32861L9.15429 8.87862C9.18731 8.99262 9.19283 9.11095 9.17054 9.22674C9.14825 9.34254 9.09859 9.45349 9.02443 9.55316C8.95027 9.65284 8.8531 9.73925 8.73855 9.80738C8.624 9.8755 8.49436 9.924 8.35714 9.95004C8.27661 9.97389 8.1933 9.99064 8.10857 10ZM12.9514 24.8215C12.2733 24.8215 11.6104 24.6539 11.0466 24.34C10.4828 24.026 10.0433 23.5798 9.78384 23.0577C9.52434 22.5356 9.45644 21.9612 9.58874 21.4069C9.72103 20.8527 10.0476 20.3436 10.5271 19.944C11.0066 19.5444 11.6175 19.2723 12.2825 19.1621C12.9476 19.0518 13.637 19.1084 14.2635 19.3247C14.89 19.5409 15.4254 19.9071 15.8022 20.377C16.1789 20.8468 16.38 21.3992 16.38 21.9643C16.38 22.7221 16.0188 23.4488 15.3758 23.9846C14.7328 24.5205 13.8607 24.8215 12.9514 24.8215ZM12.9514 20.8643C12.6937 20.8643 12.4419 20.928 12.2276 21.0473C12.0133 21.1666 11.8464 21.3362 11.7477 21.5346C11.6491 21.7329 11.6233 21.9512 11.6736 22.1619C11.7239 22.3725 11.848 22.5659 12.0302 22.7178C12.2124 22.8696 12.4445 22.973 12.6973 23.0149C12.95 23.0568 13.2119 23.0353 13.45 22.9531C13.6881 22.8709 13.8916 22.7318 14.0347 22.5532C14.1779 22.3747 14.2543 22.1648 14.2543 21.95C14.2543 21.6621 14.117 21.3859 13.8727 21.1823C13.6284 20.9787 13.297 20.8643 12.9514 20.8643ZM24.7971 24.8215C24.119 24.8215 23.4562 24.6539 22.8923 24.34C22.3285 24.026 21.8891 23.5798 21.6296 23.0577C21.3701 22.5356 21.3022 21.9612 21.4345 21.4069C21.5667 20.8527 21.8933 20.3436 22.3728 19.944C22.8523 19.5444 23.4632 19.2723 24.1283 19.1621C24.7933 19.0518 25.4827 19.1084 26.1092 19.3247C26.7357 19.5409 27.2712 19.9071 27.6479 20.377C28.0246 20.8468 28.2257 21.3992 28.2257 21.9643C28.2257 22.7221 27.8645 23.4488 27.2215 23.9846C26.5785 24.5205 25.7065 24.8215 24.7971 24.8215ZM24.7971 20.8643C24.5398 20.8657 24.2888 20.9306 24.0757 21.0508C23.8625 21.1709 23.6969 21.341 23.5996 21.5395C23.5023 21.738 23.4777 21.9561 23.5289 22.1662C23.5802 22.3763 23.7049 22.5691 23.8875 22.7202C24.07 22.8714 24.3022 22.9741 24.5547 23.0154C24.8072 23.0567 25.0687 23.0348 25.3063 22.9524C25.5438 22.87 25.7468 22.7309 25.8896 22.5525C26.0324 22.3741 26.1086 22.1645 26.1086 21.95C26.1086 21.8069 26.0746 21.6651 26.0086 21.5329C25.9426 21.4007 25.8458 21.2807 25.7239 21.1798C25.6021 21.0789 25.4574 20.9991 25.2984 20.9449C25.1393 20.8908 24.969 20.8634 24.7971 20.8643Z" fill="white"/>
<path d="M24.7971 20.8643H10.5171C9.63284 20.8643 8.78475 20.5715 8.15945 20.0504C7.53415 19.5294 7.18286 18.8226 7.18286 18.0857C7.18286 17.3488 7.53415 16.642 8.15945 16.121C8.78475 15.5999 9.63284 15.3071 10.5171 15.3071H12.7886C13.0727 15.3071 13.3453 15.4012 13.5462 15.5686C13.7471 15.7361 13.86 15.9632 13.86 16.2C13.86 16.4368 13.7471 16.6639 13.5462 16.8313C13.3453 16.9988 13.0727 17.0928 12.7886 17.0928H10.5171C10.2012 17.0928 9.89811 17.1974 9.67468 17.3836C9.45124 17.5698 9.32571 17.8224 9.32571 18.0857C9.32571 18.349 9.45124 18.6016 9.67468 18.7878C9.89811 18.974 10.2012 19.0786 10.5171 19.0786H24.7971C25.0813 19.0786 25.3538 19.1726 25.5548 19.3401C25.7557 19.5075 25.8686 19.7346 25.8686 19.9714C25.8686 20.2082 25.7557 20.4353 25.5548 20.6028C25.3538 20.7702 25.0813 20.8643 24.7971 20.8643Z" fill="white"/>
<path d="M18.544 14.1776C17.9096 14.1776 17.3627 14.0272 16.9034 13.7266C16.4441 13.4235 16.0902 12.9891 15.8416 12.4233C15.593 11.8551 15.4699 11.1721 15.4723 10.3743C15.4747 9.57647 15.599 8.89938 15.8452 8.34304C16.0938 7.78433 16.4465 7.35937 16.9034 7.06818C17.3627 6.77462 17.9096 6.62784 18.544 6.62784C19.1785 6.62784 19.7254 6.77462 20.1847 7.06818C20.6463 7.35937 21.0014 7.78433 21.25 8.34304C21.4986 8.90175 21.6217 9.57884 21.6193 10.3743C21.6193 11.1745 21.495 11.8587 21.2464 12.4268C20.9979 12.995 20.6439 13.4295 20.1847 13.7301C19.7277 14.0284 19.1809 14.1776 18.544 14.1776ZM18.544 12.7393C18.9228 12.7393 19.2294 12.5464 19.4638 12.1605C19.6982 11.7723 19.8142 11.1768 19.8118 10.3743C19.8118 9.84872 19.7585 9.41548 19.652 9.07457C19.5455 8.7313 19.3975 8.47562 19.2081 8.30753C19.0187 8.13944 18.7973 8.0554 18.544 8.0554C18.1676 8.0554 17.8634 8.24598 17.6314 8.62713C17.3994 9.00592 17.2822 9.5883 17.2798 10.3743C17.2775 10.907 17.3284 11.3485 17.4325 11.6989C17.5391 12.0492 17.6882 12.3108 17.88 12.4837C18.0717 12.6541 18.2931 12.7393 18.544 12.7393Z" fill="#F9BF29"/>
</g>
<defs>
<clipPath id="clip0_47_309">
<rect width="30" height="25" fill="white"/>
</clipPath>
</defs>
</svg>
