<svg width="19" height="20" viewBox="0 0 19 20" fill="none" xmlns="http://www.w3.org/2000/svg">
<path fill-rule="evenodd" clip-rule="evenodd" d="M14.894 2.6582C16.1599 3.53346 17.1948 4.7026 17.9099 6.06543C18.625 7.42826 18.9991 8.94385 19 10.4829C19 15.7249 14.732 20 9.5 20C4.268 20 0 15.7249 0 10.4829C0.00130997 8.88323 0.405445 7.30957 1.17512 5.90723C1.9448 4.50489 3.05524 3.31911 4.404 2.45898C3.526 4.86798 2.087 6.39596 2.738 8.95996C3.287 11.124 5.008 12.5579 6.566 12.1519C7.906 11.8029 8.702 10.2051 8.551 8.39014C8.401 6.60114 7.329 5.61898 5.996 4.37598L6.968 3.08203L8.865 5.05908L8.029 2.36182L9.607 0L11.054 2.32324L10.177 5.2002L12.072 3.12012L12.964 4.31494C11.948 5.58794 10.661 6.36911 10.634 8.16211C10.614 9.56711 11.228 11.8089 12.544 12.1519C14.102 12.5579 15.822 11.124 16.372 8.95996C16.946 6.69596 15.595 4.7022 14.894 2.6582Z" fill="#F9BF29"/>
</svg>
