<svg width="98" height="25" viewBox="0 0 98 25" fill="none" xmlns="http://www.w3.org/2000/svg">
<path d="M14.25 6.84091C14.1288 5.76515 13.6288 4.93182 12.75 4.34091C11.8712 3.74242 10.7652 3.44318 9.43182 3.44318C8.47727 3.44318 7.65152 3.5947 6.95455 3.89773C6.25758 4.19318 5.71591 4.60227 5.32955 5.125C4.95076 5.64015 4.76136 6.22727 4.76136 6.88636C4.76136 7.43939 4.89015 7.91667 5.14773 8.31818C5.41288 8.7197 5.75758 9.05682 6.18182 9.32955C6.61364 9.5947 7.07576 9.81818 7.56818 10C8.06061 10.1742 8.53409 10.3182 8.98864 10.4318L11.2614 11.0227C12.0038 11.2045 12.7652 11.4508 13.5455 11.7614C14.3258 12.072 15.0492 12.4811 15.7159 12.9886C16.3826 13.4962 16.9205 14.125 17.3295 14.875C17.7462 15.625 17.9545 16.5227 17.9545 17.5682C17.9545 18.8864 17.6136 20.0568 16.9318 21.0795C16.2576 22.1023 15.2765 22.9091 13.9886 23.5C12.7083 24.0909 11.1591 24.3864 9.34091 24.3864C7.59848 24.3864 6.09091 24.1098 4.81818 23.5568C3.54545 23.0038 2.54924 22.2197 1.82955 21.2045C1.10985 20.1818 0.712121 18.9697 0.636364 17.5682H4.15909C4.22727 18.4091 4.5 19.1098 4.97727 19.6705C5.46212 20.2235 6.07955 20.6364 6.82955 20.9091C7.58712 21.1742 8.41667 21.3068 9.31818 21.3068C10.3106 21.3068 11.1932 21.1515 11.9659 20.8409C12.7462 20.5227 13.3598 20.0833 13.8068 19.5227C14.2538 18.9545 14.4773 18.2917 14.4773 17.5341C14.4773 16.8447 14.2803 16.2803 13.8864 15.8409C13.5 15.4015 12.9735 15.0379 12.3068 14.75C11.6477 14.4621 10.9015 14.2083 10.0682 13.9886L7.31818 13.2386C5.45455 12.7311 3.97727 11.9848 2.88636 11C1.80303 10.0152 1.26136 8.71212 1.26136 7.09091C1.26136 5.75 1.625 4.57954 2.35227 3.57954C3.07955 2.57954 4.06439 1.80303 5.30682 1.25C6.54924 0.689393 7.95076 0.40909 9.51136 0.40909C11.0871 0.40909 12.4773 0.685605 13.6818 1.23864C14.8939 1.79167 15.8485 2.55303 16.5455 3.52273C17.2424 4.48485 17.6061 5.59091 17.6364 6.84091H14.25ZM22.1506 24V0.727272H30.446C32.2566 0.727272 33.7566 1.05682 34.946 1.71591C36.1354 2.375 37.0256 3.27651 37.6165 4.42045C38.2074 5.55682 38.5028 6.83712 38.5028 8.26136C38.5028 9.69318 38.2036 10.9811 37.6051 12.125C37.0142 13.2614 36.1203 14.1629 34.9233 14.8295C33.7339 15.4886 32.2377 15.8182 30.4347 15.8182H24.7301V12.8409H30.1165C31.2604 12.8409 32.1884 12.6439 32.9006 12.25C33.6127 11.8485 34.1354 11.303 34.4688 10.6136C34.8021 9.92424 34.9688 9.14015 34.9688 8.26136C34.9688 7.38258 34.8021 6.60227 34.4688 5.92045C34.1354 5.23864 33.6089 4.70454 32.8892 4.31818C32.1771 3.93182 31.2377 3.73864 30.071 3.73864H25.6619V24H22.1506ZM46.1307 0.727272V24H42.6193V0.727272H46.1307ZM50.0966 3.75V0.727272H68.108V3.75H60.8466V24H57.3466V3.75H50.0966ZM75.5994 0.727272V24H72.0881V0.727272H75.5994ZM93.4062 6.84091C93.285 5.76515 92.785 4.93182 91.9062 4.34091C91.0275 3.74242 89.9214 3.44318 88.5881 3.44318C87.6335 3.44318 86.8078 3.5947 86.1108 3.89773C85.4138 4.19318 84.8722 4.60227 84.4858 5.125C84.107 5.64015 83.9176 6.22727 83.9176 6.88636C83.9176 7.43939 84.0464 7.91667 84.304 8.31818C84.5691 8.7197 84.9138 9.05682 85.3381 9.32955C85.7699 9.5947 86.232 9.81818 86.7244 10C87.2169 10.1742 87.6903 10.3182 88.1449 10.4318L90.4176 11.0227C91.16 11.2045 91.9214 11.4508 92.7017 11.7614C93.482 12.072 94.2055 12.4811 94.8722 12.9886C95.5388 13.4962 96.0767 14.125 96.4858 14.875C96.9025 15.625 97.1108 16.5227 97.1108 17.5682C97.1108 18.8864 96.7699 20.0568 96.0881 21.0795C95.4138 22.1023 94.4328 22.9091 93.1449 23.5C91.8646 24.0909 90.3153 24.3864 88.4972 24.3864C86.7547 24.3864 85.2472 24.1098 83.9744 23.5568C82.7017 23.0038 81.7055 22.2197 80.9858 21.2045C80.2661 20.1818 79.8684 18.9697 79.7926 17.5682H83.3153C83.3835 18.4091 83.6563 19.1098 84.1335 19.6705C84.6184 20.2235 85.2358 20.6364 85.9858 20.9091C86.7434 21.1742 87.5729 21.3068 88.4744 21.3068C89.4669 21.3068 90.3494 21.1515 91.1222 20.8409C91.9025 20.5227 92.5161 20.0833 92.9631 19.5227C93.41 18.9545 93.6335 18.2917 93.6335 17.5341C93.6335 16.8447 93.4366 16.2803 93.0426 15.8409C92.6563 15.4015 92.1297 15.0379 91.4631 14.75C90.804 14.4621 90.0578 14.2083 89.2244 13.9886L86.4744 13.2386C84.6108 12.7311 83.1335 11.9848 82.0426 11C80.9593 10.0152 80.4176 8.71212 80.4176 7.09091C80.4176 5.75 80.7813 4.57954 81.5085 3.57954C82.2358 2.57954 83.2206 1.80303 84.4631 1.25C85.7055 0.689393 87.107 0.40909 88.6676 0.40909C90.2434 0.40909 91.6335 0.685605 92.8381 1.23864C94.0502 1.79167 95.0047 2.55303 95.7017 3.52273C96.3987 4.48485 96.7623 5.59091 96.7926 6.84091H93.4062Z" fill="white"/>
</svg>
